<?xml version="1.0" encoding="utf-8"?>
<!-- Generator: Adobe Illustrator 24.3.0, SVG Export Plug-In . SVG Version: 6.00 Build 0)  -->
<svg version="1.1" id="Ebene_1" xmlns="http://www.w3.org/2000/svg" xmlns:xlink="http://www.w3.org/1999/xlink" x="0px" y="0px"
	 viewBox="0 0 24 24" style="enable-background:new 0 0 24 24;" xml:space="preserve">
<style type="text/css">
	.st0{fill:none;}
</style>
<g fill="currentColor">
	<path class="st0" d="M0,0h24v24H0V0z"/>
	<path class="st1" d="M20.9,13.2L20.9,13.2c0-0.4,0.1-0.8,0.1-1.2s0-0.8-0.1-1.2l0,0l2.9-2.3L21,3.5l-3.4,1.4l0,0
		c-0.6-0.5-1.3-0.9-2.1-1.2h0L14.9,0H9.1L8.6,3.7h0C7.8,4,7.1,4.4,6.5,4.9l0,0L3.1,3.5L0.1,8.5l2.9,2.3l0,0C3,11.2,3,11.6,3,12
		s0,0.8,0.1,1.2l0,0l-2.5,2l-0.4,0.3l2.9,5l3.5-1.4l0,0c0.6,0.5,1.3,0.9,2.1,1.2h0L9.1,24h5.8c0,0,0-0.2,0.1-0.5l0.5-3.2h0
		c0.7-0.3,1.4-0.7,2.1-1.2l0,0l3.5,1.4l2.9-5c0,0-0.2-0.1-0.4-0.3L20.9,13.2z M11.3,16.1l-4.3-4.3l1.1-1.1l3.2,3.2l6-6L18.4,9
		L11.3,16.1z"/>
</g>
</svg>
