<?xml version="1.0" encoding="utf-8"?>
<svg version="1.1" xmlns="http://www.w3.org/2000/svg" xmlns:xlink="http://www.w3.org/1999/xlink" x="0px" y="0px"
	 viewBox="0 0 256 256" style="enable-background:new 0 0 256 256;" xml:space="preserve">
<style type="text/css">
	.st0{fill:#0D823C;}
	.st1{opacity:0.6;fill:#FFFFFF;}
	.st2{fill:#FFFFFF;}
	.st3{opacity:0.3;fill:#0D823C;}
</style>
<g>
	<g>
		<g>
			<g>
				<g>
					<rect class="st0" width="256" height="256"/>
				</g>
			</g>
		</g>
	</g>
</g>
<g>
	<path class="st1" d="M188.6,210.1v2.4c-0.1,8.2-6.7,14.8-14.8,14.8H63.5c-8.2,0-14.8-6.6-14.8-14.9v-146c0-8.2,6.6-14.9,14.8-15
		h2.4v138c0,11.4,9.2,20.6,20.6,20.6H188.6z"/>
	<g>
		<path class="st2" d="M159.1,28.6H86.5c0,0,0,0,0,0c-8.2,0-14.8,6.7-14.8,15v145.9c0,0,0,0,0,0.1c0,8.2,6.7,14.9,14.8,14.9h110.3
			c8.2,0,14.8-6.6,14.8-14.8V81.4L159.1,28.6z"/>
	</g>
	<polygon class="st3" points="212.2,81.6 159.1,28.6 159.1,81.6 	"/>
	<path class="st0" d="M165.5,136.8h-12.4l16.5,16.5l16.5-16.5h-12.5c0-18.3-14.8-33.1-33-33.1c0,0-0.1,0-0.1,0
		c-6.2-0.1-12.3,1.7-17.6,5l6.1,6.1c3.6-1.9,7.6-2.9,11.6-2.9C154.3,112.1,165.4,123.1,165.5,136.8z M159.8,160.1l-6.1-6.1
		c-3.6,1.8-7.6,2.8-11.6,2.9c-13.7,0-24.7-11.1-24.7-24.7l0,0h12.4l-16.5-16.5l-16.5,16.5h12.4c0,18.3,14.8,33.1,33,33.1
		c0,0,0.1,0,0.1,0C148.5,165.1,154.6,163.4,159.8,160.1z"/>
</g>
</svg>
